<?xml version="1.0" encoding="UTF-8"?><svg id="uuid-c6cb27a6-ed88-4804-a477-311dddc03dc0" xmlns="http://www.w3.org/2000/svg" viewBox="0 0 15.13 12.88"><g id="uuid-9c2675f9-ee41-4495-b67c-1ecfc5c7de91"><g><path d="M4.25,9.16l.74-4.1c.03-.15-.09-.29-.24-.29H1.55c-.07,0-.14,.05-.15,.13L0,12.6c-.03,.15,.09,.28,.23,.28H7.93c.08,0,.15-.06,.16-.13l.58-3.2c.03-.15-.09-.29-.24-.29H4.33c-.05,0-.09-.05-.08-.1Z"/><path d="M9.25,4.77h-2.89c-.1,0-.17,.06-.19,.15l-.53,2.91c-.02,.14,.09,.27,.23,.27h2.89c.1,0,.17-.06,.19-.15l.53-2.91c.02-.14-.09-.27-.23-.27Z"/><path d="M9.84,9.41l-.58,3.2c-.02,.14,.09,.27,.23,.27h3.18c.1,0,.17-.06,.19-.15l.58-3.2c.02-.14-.09-.27-.23-.27h-3.18c-.1,0-.17,.06-.19,.15Z"/><path d="M5.29,3.47L5.87,.27C5.89,.14,5.77,0,5.63,0H2.45c-.1,0-.17,.06-.19,.15l-.58,3.2c-.02,.14,.09,.27,.23,.27h3.18c.1,0,.17-.06,.19-.15Z"/><path d="M14.89,0H7.2c-.08,0-.15,.06-.16,.13l-.58,3.21c-.03,.15,.09,.28,.23,.28h4.1c.05,0,.09,.05,.08,.1l-.75,4.11c-.03,.15,.09,.28,.23,.28h3.2c.08,0,.15-.06,.16-.13L15.12,.28C15.15,.13,15.04,0,14.89,0Z"/></g></g></svg>