<?xml version="1.0" encoding="UTF-8"?><svg id="uuid-e1cee73c-d77a-4634-974e-f3dc3b2564e2" xmlns="http://www.w3.org/2000/svg" viewBox="0 0 66.41 12.88"><g id="uuid-363e2420-71be-4c25-b57b-3adb6658c5dd"><g><path d="M4.25,9.16l.74-4.1c.03-.15-.09-.29-.24-.29H1.55c-.07,0-.14,.05-.15,.13L0,12.6c-.03,.15,.09,.28,.23,.28H7.93c.08,0,.15-.06,.16-.13l.58-3.2c.03-.15-.09-.29-.24-.29H4.33c-.05,0-.09-.05-.08-.1Z" style="fill:#3d67b1;"/><path d="M9.25,4.77h-2.89c-.1,0-.17,.06-.19,.15l-.53,2.91c-.02,.14,.09,.27,.23,.27h2.89c.1,0,.17-.06,.19-.15l.53-2.91c.02-.14-.09-.27-.23-.27Z" style="fill:#00a659;"/><path d="M9.84,9.41l-.58,3.2c-.02,.14,.09,.27,.23,.27h3.18c.1,0,.17-.06,.19-.15l.58-3.2c.02-.14-.09-.27-.23-.27h-3.18c-.1,0-.17,.06-.19,.15Z" style="fill:#3d67b1;"/><path d="M5.29,3.47L5.87,.27C5.89,.14,5.77,0,5.63,0H2.45c-.1,0-.17,.06-.19,.15l-.58,3.2c-.02,.14,.09,.27,.23,.27h3.18c.1,0,.17-.06,.19-.15Z" style="fill:#3d67b1;"/><path d="M14.89,0H7.2c-.08,0-.15,.06-.16,.13l-.58,3.21c-.03,.15,.09,.28,.23,.28h4.1c.05,0,.09,.05,.08,.1l-.75,4.11c-.03,.15,.09,.28,.23,.28h3.2c.08,0,.15-.06,.16-.13L15.12,.28C15.15,.13,15.04,0,14.89,0Z" style="fill:#00a659;"/></g><g><path d="M16.17,11.52l.2-.02c0,.08,.03,.15,.07,.2s.09,.09,.16,.12,.16,.05,.25,.05c.08,0,.15-.01,.21-.04s.11-.06,.14-.1c.03-.04,.05-.09,.05-.14s-.01-.09-.04-.13c-.03-.04-.08-.07-.14-.09-.04-.02-.14-.04-.29-.08-.15-.04-.25-.07-.31-.1-.08-.04-.13-.09-.17-.15-.04-.06-.06-.13-.06-.2,0-.08,.02-.16,.07-.23,.05-.07,.11-.12,.2-.16,.09-.04,.19-.05,.29-.05,.12,0,.22,.02,.32,.06s.16,.09,.21,.17,.08,.16,.08,.25l-.2,.02c-.01-.1-.05-.18-.11-.23-.06-.05-.16-.08-.28-.08s-.22,.02-.28,.07-.09,.1-.09,.17c0,.06,.02,.11,.06,.14,.04,.04,.15,.08,.32,.11,.17,.04,.29,.07,.36,.1,.09,.04,.16,.1,.21,.16,.04,.07,.07,.14,.07,.23s-.02,.17-.07,.24-.12,.13-.21,.18c-.09,.04-.19,.06-.31,.06-.15,0-.27-.02-.37-.06-.1-.04-.18-.11-.23-.19-.06-.08-.09-.18-.09-.29Z" style="fill:#3d67b1;"/><path d="M17.78,12.04v-1.61h.21v1.61h-.21Z" style="fill:#3d67b1;"/><path d="M18.29,11.52l.2-.02c0,.08,.03,.15,.07,.2s.09,.09,.16,.12,.16,.05,.25,.05c.08,0,.15-.01,.21-.04s.11-.06,.14-.1c.03-.04,.05-.09,.05-.14s-.01-.09-.04-.13c-.03-.04-.08-.07-.14-.09-.04-.02-.14-.04-.29-.08-.15-.04-.25-.07-.31-.1-.08-.04-.13-.09-.17-.15-.04-.06-.06-.13-.06-.2,0-.08,.02-.16,.07-.23,.05-.07,.11-.12,.2-.16,.09-.04,.19-.05,.29-.05,.12,0,.22,.02,.32,.06s.16,.09,.21,.17,.08,.16,.08,.25l-.2,.02c-.01-.1-.05-.18-.11-.23-.06-.05-.16-.08-.28-.08s-.22,.02-.28,.07-.09,.1-.09,.17c0,.06,.02,.11,.06,.14,.04,.04,.15,.08,.32,.11,.17,.04,.29,.07,.36,.1,.09,.04,.16,.1,.21,.16,.04,.07,.07,.14,.07,.23s-.02,.17-.07,.24-.12,.13-.21,.18c-.09,.04-.19,.06-.31,.06-.15,0-.27-.02-.37-.06-.1-.04-.18-.11-.23-.19-.06-.08-.09-.18-.09-.29Z" style="fill:#3d67b1;"/><path d="M20.27,12.04v-1.42h-.53v-.19h1.27v.19h-.53v1.42h-.21Z" style="fill:#3d67b1;"/><path d="M21.24,12.04v-1.61h1.16v.19h-.95v.49h.89v.19h-.89v.55h.99v.19h-1.2Z" style="fill:#3d67b1;"/><path d="M22.72,12.04v-1.61h.32l.38,1.14c.04,.11,.06,.19,.08,.24,.02-.06,.05-.14,.09-.26l.38-1.12h.29v1.61h-.21v-1.35l-.47,1.35h-.19l-.46-1.37v1.37h-.21Z" style="fill:#3d67b1;"/><path d="M25.26,12.04v-1.61h.21v1.61h-.21Z" style="fill:#3d67b1;"/><path d="M25.85,12.04v-1.61h.22l.84,1.26v-1.26h.2v1.61h-.22l-.84-1.26v1.26h-.2Z" style="fill:#3d67b1;"/><path d="M27.48,12.04v-1.61h1.08v.19h-.87v.5h.75v.19h-.75v.73h-.21Z" style="fill:#3d67b1;"/><path d="M28.78,11.25c0-.27,.07-.48,.21-.63,.14-.15,.33-.23,.56-.23,.15,0,.28,.04,.4,.11,.12,.07,.21,.17,.27,.3,.06,.13,.09,.27,.09,.43s-.03,.31-.1,.44c-.07,.13-.16,.23-.28,.29-.12,.07-.25,.1-.39,.1-.15,0-.29-.04-.41-.11-.12-.07-.21-.17-.27-.3-.06-.13-.09-.26-.09-.4Zm.22,0c0,.19,.05,.35,.16,.46,.1,.11,.23,.17,.39,.17s.29-.06,.4-.17c.1-.11,.16-.27,.16-.48,0-.13-.02-.25-.07-.34s-.11-.17-.19-.23-.18-.08-.29-.08c-.15,0-.28,.05-.39,.16-.11,.1-.16,.28-.16,.52Z" style="fill:#3d67b1;"/><path d="M30.59,12.04v-1.61h.71c.14,0,.25,.01,.33,.04,.07,.03,.13,.08,.18,.15,.04,.07,.07,.15,.07,.24,0,.11-.04,.21-.11,.29-.07,.08-.19,.13-.34,.15,.06,.03,.1,.05,.13,.08,.06,.06,.12,.13,.18,.21l.28,.44h-.27l-.21-.33c-.06-.1-.11-.17-.15-.22-.04-.05-.08-.09-.11-.11-.03-.02-.06-.03-.1-.04-.02,0-.06,0-.12,0h-.25v.71h-.21Zm.21-.9h.46c.1,0,.17,0,.23-.03,.05-.02,.1-.05,.12-.1,.03-.04,.04-.09,.04-.14,0-.08-.03-.14-.08-.19-.06-.05-.14-.07-.26-.07h-.51v.53Z" style="fill:#3d67b1;"/><path d="M32.2,12.04v-1.61h.32l.38,1.14c.04,.11,.06,.19,.08,.24,.02-.06,.05-.14,.09-.26l.38-1.12h.29v1.61h-.21v-1.35l-.47,1.35h-.19l-.46-1.37v1.37h-.21Z" style="fill:#3d67b1;"/><path d="M33.9,12.04l.62-1.61h.23l.66,1.61h-.24l-.19-.49h-.67l-.18,.49h-.23Zm.46-.66h.54l-.17-.45c-.05-.13-.09-.25-.11-.33-.02,.1-.05,.21-.09,.31l-.18,.47Z" style="fill:#3d67b1;"/><path d="M35.5,11.52l.2-.02c0,.08,.03,.15,.07,.2s.09,.09,.16,.12,.16,.05,.25,.05c.08,0,.15-.01,.21-.04s.11-.06,.14-.1c.03-.04,.05-.09,.05-.14s-.01-.09-.04-.13c-.03-.04-.08-.07-.14-.09-.04-.02-.14-.04-.29-.08-.15-.04-.25-.07-.31-.1-.08-.04-.13-.09-.17-.15-.04-.06-.06-.13-.06-.2,0-.08,.02-.16,.07-.23,.05-.07,.11-.12,.2-.16,.09-.04,.19-.05,.29-.05,.12,0,.22,.02,.32,.06s.16,.09,.21,.17,.08,.16,.08,.25l-.2,.02c-.01-.1-.05-.18-.11-.23-.06-.05-.16-.08-.28-.08s-.22,.02-.28,.07-.09,.1-.09,.17c0,.06,.02,.11,.06,.14,.04,.04,.15,.08,.32,.11,.17,.04,.29,.07,.36,.1,.09,.04,.16,.1,.21,.16,.04,.07,.07,.14,.07,.23s-.02,.17-.07,.24-.12,.13-.21,.18c-.09,.04-.2,.06-.31,.06-.15,0-.27-.02-.37-.06-.1-.04-.18-.11-.23-.19-.06-.08-.09-.18-.09-.29Z" style="fill:#3d67b1;"/><path d="M37.11,12.04v-1.61h.21v1.61h-.21Z" style="fill:#3d67b1;"/><path d="M38.32,12.04v-1.61h.32l.38,1.14c.04,.11,.06,.19,.08,.24,.02-.06,.05-.14,.09-.26l.38-1.12h.29v1.61h-.21v-1.35l-.47,1.35h-.19l-.46-1.37v1.37h-.21Z" style="fill:#3d67b1;"/><path d="M40.02,12.04l.62-1.61h.23l.66,1.61h-.24l-.19-.49h-.67l-.18,.49h-.23Zm.46-.66h.54l-.17-.45c-.05-.13-.09-.25-.11-.33-.02,.1-.05,.21-.09,.31l-.18,.47Z" style="fill:#3d67b1;"/><path d="M41.69,12.04v-1.61h.22l.84,1.26v-1.26h.2v1.61h-.22l-.84-1.26v1.26h-.2Z" style="fill:#3d67b1;"/><path d="M43.13,12.04l.62-1.61h.23l.66,1.61h-.24l-.19-.49h-.67l-.18,.49h-.23Zm.46-.66h.54l-.17-.45c-.05-.13-.09-.25-.11-.33-.02,.1-.05,.21-.09,.31l-.18,.47Z" style="fill:#3d67b1;"/><path d="M44.7,11.58l.19-.03c0,.12,.03,.21,.07,.25,.04,.05,.1,.07,.17,.07,.05,0,.1-.01,.14-.04,.04-.02,.07-.06,.08-.1,.01-.04,.02-.11,.02-.2v-1.11h.21v1.1c0,.13-.02,.24-.05,.31-.03,.07-.08,.13-.15,.17-.07,.04-.15,.06-.25,.06-.14,0-.25-.04-.32-.12s-.11-.2-.11-.36Z" style="fill:#3d67b1;"/><path d="M45.94,12.04v-1.61h1.16v.19h-.95v.49h.89v.19h-.89v.55h.99v.19h-1.2Z" style="fill:#3d67b1;"/><path d="M47.42,12.04v-1.61h.32l.38,1.14c.04,.11,.06,.19,.08,.24,.02-.06,.05-.14,.09-.26l.38-1.12h.29v1.61h-.21v-1.35l-.47,1.35h-.19l-.46-1.37v1.37h-.21Z" style="fill:#3d67b1;"/><path d="M49.3,12.04v-1.61h1.16v.19h-.95v.49h.89v.19h-.89v.55h.99v.19h-1.2Z" style="fill:#3d67b1;"/><path d="M50.79,12.04v-1.61h.22l.84,1.26v-1.26h.2v1.61h-.22l-.84-1.26v1.26h-.2Z" style="fill:#3d67b1;"/><path d="M53.03,12.04v-1.61h.21v.8l.8-.8h.29l-.67,.65,.7,.96h-.28l-.57-.81-.26,.26v.56h-.21Z" style="fill:#3d67b1;"/><path d="M54.54,12.04v-1.61h1.16v.19h-.95v.49h.89v.19h-.89v.55h.99v.19h-1.2Z" style="fill:#3d67b1;"/><path d="M56.03,12.04v-1.61h.21v1.42h.79v.19h-1Z" style="fill:#3d67b1;"/><path d="M58.34,10.43h.21v.93c0,.16-.02,.29-.05,.38-.04,.1-.1,.17-.2,.23-.1,.06-.22,.09-.38,.09s-.27-.03-.37-.08c-.1-.05-.16-.13-.21-.23-.04-.1-.06-.23-.06-.4v-.93h.21v.93c0,.14,.01,.24,.04,.31,.03,.07,.07,.12,.13,.15,.06,.04,.14,.05,.23,.05,.16,0,.27-.04,.33-.11,.07-.07,.1-.21,.1-.41v-.93Z" style="fill:#3d67b1;"/><path d="M58.91,12.04v-1.61h.71c.14,0,.25,.01,.33,.04,.07,.03,.13,.08,.18,.15,.04,.07,.07,.15,.07,.24,0,.11-.04,.21-.11,.29-.07,.08-.19,.13-.34,.15,.06,.03,.1,.05,.13,.08,.06,.06,.12,.13,.18,.21l.28,.44h-.27l-.21-.33c-.06-.1-.11-.17-.15-.22-.04-.05-.08-.09-.11-.11-.03-.02-.06-.03-.1-.04-.02,0-.06,0-.12,0h-.25v.71h-.21Zm.21-.9h.46c.1,0,.17,0,.23-.03,.05-.02,.1-.05,.12-.1,.03-.04,.04-.09,.04-.14,0-.08-.03-.14-.08-.19-.06-.05-.14-.07-.26-.07h-.51v.53Z" style="fill:#3d67b1;"/><path d="M60.35,12.04l.62-1.61h.23l.66,1.61h-.24l-.19-.49h-.67l-.18,.49h-.23Zm.46-.66h.54l-.17-.45c-.05-.13-.09-.25-.11-.33-.02,.1-.05,.21-.09,.31l-.18,.47Z" style="fill:#3d67b1;"/><path d="M62.03,12.04v-1.61h.21v.66h.84v-.66h.21v1.61h-.21v-.76h-.84v.76h-.21Z" style="fill:#3d67b1;"/><path d="M63.47,12.04l.62-1.61h.23l.66,1.61h-.24l-.19-.49h-.67l-.18,.49h-.23Zm.46-.66h.54l-.17-.45c-.05-.13-.09-.25-.11-.33-.02,.1-.05,.21-.09,.31l-.18,.47Z" style="fill:#3d67b1;"/><path d="M65.14,12.04v-1.61h.22l.84,1.26v-1.26h.2v1.61h-.22l-.84-1.26v1.26h-.2Z" style="fill:#3d67b1;"/></g><g><path d="M22.11,2.68c-.49-.8-1.53-1.06-2.42-1.07-1.04,0-2.38,.3-2.38,1.54,0,.99,1.09,1.25,2.4,1.48,1.67,.29,3.35,.66,3.35,2.46-.01,1.91-1.85,2.42-3.38,2.42-1.42,0-2.87-.52-3.52-1.87l.74-.4c.58,1.09,1.76,1.46,2.79,1.46s2.52-.28,2.52-1.63c.01-1.15-1.27-1.44-2.58-1.67-1.59-.28-3.16-.63-3.16-2.27-.02-1.77,1.79-2.34,3.21-2.34,1.16,0,2.4,.31,3.15,1.47l-.71,.4Z" style="fill:#231f20;"/><path d="M25.5,1.56c0,.76-1.15,.76-1.15,0s1.15-.76,1.15,0Zm-.99,1.85v5.98h.81V3.4h-.81Z" style="fill:#231f20;"/><path d="M31.51,9.39v-3.45c0-1.05-.7-1.86-1.75-1.86s-1.75,.81-1.75,1.86v3.45h-.81V3.43h.76l.04,.93c.39-.75,1.12-1.04,1.85-1.04,.86,0,1.75,.37,2.1,1.38,.4-.94,1.27-1.38,2.15-1.38,1.52,0,2.51,1.03,2.51,2.59v3.47h-.81v-3.47c0-1.06-.66-1.83-1.71-1.83s-1.76,.81-1.76,1.86v3.45h-.81Z" style="fill:#231f20;"/><path d="M39.3,.94V9.39h-.81V.94h.81Z" style="fill:#231f20;"/><path d="M41.99,3.43v3.34c0,1.24,.75,1.95,1.95,1.94,1.15,0,1.95-.89,1.95-2.04V3.43h.8v5.96h-.75l-.02-1c-.49,.76-1.28,1.09-2.11,1.1-1.54,0-2.63-1-2.63-2.7V3.43h.81Z" style="fill:#231f20;"/><path d="M49.34,3.43l.05,.98c.39-.8,1.18-1.07,1.89-1.07,.54,0,.92,.12,1.35,.42l-.37,.68c-.3-.21-.64-.31-1.03-.31-1.02,.01-1.85,.8-1.85,1.88v3.39h-.81V3.43h.76Z" style="fill:#231f20;"/><path d="M58.41,3.43h.76v5.96h-.75v-1.18c-.52,.88-1.47,1.3-2.36,1.3-1.69,0-3.04-1.21-3.04-3.1s1.36-3.06,3.05-3.06c.92,0,1.89,.42,2.34,1.27v-1.18Zm-4.58,2.98c0,1.41,1.01,2.34,2.27,2.34,3.08,0,3.08-4.67,0-4.67-1.25,0-2.27,.93-2.27,2.33Z" style="fill:#231f20;"/><path d="M61.85,.94v3.52c.49-.81,1.28-1.11,2.08-1.12,1.66,0,2.48,1.1,2.48,2.7v3.34h-.81v-3.34c0-1.19-.58-1.93-1.77-1.93s-1.97,.9-1.97,2.06v3.21h-.81V.94h.8Z" style="fill:#231f20;"/></g></g></svg>